HIERARCHY
ROOT Hips
{
	OFFSET -0.001795 -0.223333 0.028219
	CHANNELS 6 Xposition Yposition Zposition Zrotation Yrotation Xrotation 
	JOINT LeftUpLeg
	{
		OFFSET 0.069520 -0.091406 -0.006815
		CHANNELS 3 Zrotation Yrotation Xrotation
		JOINT LeftLeg
		{
			OFFSET 0.034277 -0.375199 -0.004496
			CHANNELS 3 Zrotation Yrotation Xrotation
			JOINT LeftFoot
			{
				OFFSET -0.013596 -0.397961 -0.043693
				CHANNELS 3 Zrotation Yrotation Xrotation
				JOINT LeftToe
				{
					OFFSET 0.026358 -0.055791 0.119288
					CHANNELS 3 Zrotation Yrotation Xrotation
					End Site
					{
						OFFSET 0.000000 0.000000 0.000000
					}
				}
			}
		}
	}
	JOINT RightUpLeg
	{
		OFFSET -0.067670 -0.090522 -0.004320
		CHANNELS 3 Zrotation Yrotation Xrotation
		JOINT RightLeg
		{
			OFFSET -0.038290 -0.382569 -0.008850
			CHANNELS 3 Zrotation Yrotation Xrotation
			JOINT RightFoot
			{
				OFFSET 0.015774 -0.398415 -0.042312
				CHANNELS 3 Zrotation Yrotation Xrotation
				JOINT RightToe
				{
					OFFSET -0.025372 -0.048144 0.123348
					CHANNELS 3 Zrotation Yrotation Xrotation
					End Site
					{
						OFFSET 0.000000 0.000000 0.000000
					}
				}
			}
		}
	}
	JOINT Spine
	{
		OFFSET -0.002533 0.108963 -0.026696
		CHANNELS 3 Zrotation Yrotation Xrotation
		JOINT Spine1
		{
			OFFSET 0.005487 0.135180 0.001092
			CHANNELS 3 Zrotation Yrotation Xrotation
			JOINT Spine2
			{
				OFFSET 0.001457 0.052922 0.025425
				CHANNELS 3 Zrotation Yrotation Xrotation
				JOINT Neck
				{
					OFFSET -0.002778 0.213870 -0.042857
					CHANNELS 3 Zrotation Yrotation Xrotation
					JOINT Head
					{
						OFFSET 0.005152 0.064970 0.051349
						CHANNELS 3 Zrotation Yrotation Xrotation
						End Site
						{
							OFFSET 0.000000 0.000000 0.000000
						}
					}
				}
				JOINT LeftShoulder
				{
					OFFSET 0.078845 0.121749 -0.034090
					CHANNELS 3 Zrotation Yrotation Xrotation
					JOINT LeftArm
					{
						OFFSET 0.090977 0.030469 -0.008868
						CHANNELS 3 Zrotation Yrotation Xrotation
						JOINT LeftForeArm
						{
							OFFSET 0.259612 -0.012772 -0.027456
							CHANNELS 3 Zrotation Yrotation Xrotation
							JOINT LeftHand
							{
								OFFSET 0.249234 0.008986 -0.001171
								CHANNELS 3 Zrotation Yrotation Xrotation
								End Site
								{
									OFFSET 0.000000 0.000000 0.000000
								}
							}
						}
					}
				}
				JOINT RightShoulder
				{
					OFFSET -0.081759 0.118833 -0.038615
					CHANNELS 3 Zrotation Yrotation Xrotation
					JOINT RightArm
					{
						OFFSET -0.096012 0.032551 -0.009143
						CHANNELS 3 Zrotation Yrotation Xrotation
						JOINT RightForeArm
						{
							OFFSET -0.253742 -0.013329 -0.021401
							CHANNELS 3 Zrotation Yrotation Xrotation
							JOINT RightHand
							{
								OFFSET -0.255298 0.007772 -0.005559
								CHANNELS 3 Zrotation Yrotation Xrotation
								End Site
								{
									OFFSET 0.000000 0.000000 0.000000
								}
							}
						}
					}
				}
			}
		}
	}
}
MOTION
Frames: 18
Frame Time: 0.050000
0.000000 0.943228 0.000000 -0.989386 0.998282 -0.112132 3.307436 0.072275 1.944275 -5.751432 0.648104 2.049803 8.433342 17.900772 9.402615 0.000000 0.000000 0.000000 -0.596095 -0.039113 0.537650 3.841987 -0.402694 3.019189 -8.984752 -21.424800 11.908332 0.000000 0.000000 0.000000 -2.124952 -0.059492 3.343749 2.602988 -0.083911 -22.378111 0.157583 -0.925707 29.934463 0.814346 1.488320 -33.789845 0.000000 0.000000 0.000000 -14.611632 -3.008053 0.922231 -34.742090 10.233632 -8.360827 -89.232473 -23.431469 25.467334 0.000000 0.000000 0.000000 8.552993 7.824148 3.018730 37.781577 -10.298450 -8.302101 94.454666 28.230819 31.155362 0.000000 0.000000 0.000000 
-0.000368 0.941890 0.000383 -1.062898 1.459055 0.440633 3.158997 0.067823 1.926061 -5.241032 0.565269 0.993725 8.285002 17.641305 8.893966 0.000000 0.000000 0.000000 -0.513579 -0.075401 0.890526 3.984950 -0.431711 1.421945 -9.158061 -21.716067 11.761710 0.000000 0.000000 0.000000 -2.622965 -0.023543 2.584966 2.177848 0.037209 -22.395583 0.977501 -2.167484 29.664982 -0.150050 1.981808 -37.147551 0.000000 0.000000 0.000000 -13.650066 -2.329049 0.769469 -34.845340 10.454347 -8.446240 -91.856382 -20.963366 24.343597 0.000000 0.000000 0.000000 6.290885 7.955503 2.918689 37.274843 -10.423589 -8.176051 96.176204 27.651868 30.817631 0.000000 0.000000 0.000000 
-0.000693 0.941864 0.000458 -1.024405 2.919343 0.757233 3.532217 0.030692 1.779759 -5.626441 0.577425 0.367232 7.532974 16.434117 8.590641 0.000000 0.000000 0.000000 -0.197572 -0.102611 1.056159 3.679044 -0.411822 0.694288 -9.856181 -22.848577 12.334646 0.000000 0.000000 0.000000 -2.774442 -0.006546 1.928979 2.497366 -0.033911 -21.961110 0.205390 -2.554245 30.152407 1.534499 1.410417 -39.224134 0.000000 0.000000 0.000000 -14.077981 -3.463554 1.241264 -34.934627 10.805395 -8.604338 -90.149281 -21.760449 24.288827 0.000000 0.000000 0.000000 7.441542 8.131912 3.084578 36.952340 -11.098999 -8.297050 91.730541 28.538605 29.722270 0.000000 0.000000 0.000000 
-0.001172 0.941538 0.000171 -0.932518 2.743747 0.953237 3.246457 0.042473 1.796965 -5.294460 0.540872 -0.034534 7.629320 16.590089 8.623256 0.000000 0.000000 0.000000 -0.150535 -0.061820 0.644985 3.448784 -0.379920 1.001358 -9.834692 -22.835407 12.095721 0.000000 0.000000 0.000000 -3.498179 0.024872 0.877975 3.379514 -0.259907 -22.150937 -0.383520 -3.119446 31.181897 2.008290 1.214612 -40.914791 0.000000 0.000000 0.000000 -14.776786 -2.914833 1.121382 -34.031381 11.212945 -8.546294 -89.514361 -21.019564 23.386715 0.000000 0.000000 0.000000 6.703290 9.122170 3.411006 36.568185 -10.712965 -8.153083 91.901136 27.340637 28.112334 0.000000 0.000000 0.000000 
-0.001826 0.941540 -0.000416 -0.924613 2.564126 0.901974 3.318491 0.036625 1.709916 -5.399827 0.556670 0.180192 7.718036 16.734969 8.675491 0.000000 0.000000 0.000000 -0.103545 -0.066253 0.677162 3.389357 -0.371632 0.951013 -9.747098 -22.695071 12.009878 0.000000 0.000000 0.000000 -3.640444 0.027895 0.764492 3.850169 -0.437710 -21.242736 -0.832890 -3.329181 30.623059 2.279394 1.072733 -41.004835 0.000000 0.000000 0.000000 -14.636226 -2.861272 1.141367 -34.796196 11.504738 -8.783287 -88.600922 -20.767101 22.974719 0.000000 0.000000 0.000000 6.752124 9.690344 3.593757 36.267700 -9.115643 -7.600530 88.747460 27.597309 26.699549 0.000000 0.000000 0.000000 
-0.002233 0.941810 -0.001520 -0.897811 2.332727 0.949530 3.273743 0.039273 1.700188 -5.380410 0.555759 0.013404 7.803126 16.885978 8.879529 0.000000 0.000000 0.000000 -0.276397 -0.059043 0.653270 3.641171 -0.401273 0.734457 -9.602416 -22.447057 12.031032 0.000000 0.000000 0.000000 -3.937263 0.037203 0.146228 3.737994 -0.398198 -21.498200 -0.546102 -3.509644 31.686043 1.787950 1.260907 -41.621094 0.000000 0.000000 0.000000 -14.609162 -3.114018 1.367677 -35.240027 11.475472 -8.981070 -88.355561 -20.355002 22.690241 0.000000 0.000000 0.000000 6.142848 10.202354 3.761544 37.004409 -8.604247 -7.706377 87.939870 27.367330 26.090751 0.000000 0.000000 0.000000 
-0.002310 0.941732 -0.003196 -1.013827 2.351718 0.808977 3.539766 0.031671 1.716917 -5.619241 0.580545 0.051582 7.790554 16.860188 8.814184 0.000000 0.000000 0.000000 -0.126152 -0.042826 0.452641 3.608897 -0.395153 1.165228 -9.639412 -22.512413 12.008982 0.000000 0.000000 0.000000 -3.824866 0.034482 0.128356 3.971228 -0.487570 -21.040203 -0.763917 -3.525838 31.604197 2.243377 1.054335 -41.355464 0.000000 0.000000 0.000000 -14.275576 -3.188846 1.403614 -35.452604 11.358803 -9.002676 -87.962754 -19.931529 22.154758 0.000000 0.000000 0.000000 6.560838 10.629934 3.946566 36.519115 -8.185327 -7.474139 86.475613 27.266465 25.298243 0.000000 0.000000 0.000000 
-0.002197 0.941738 -0.005126 -1.135482 1.919602 0.830429 3.521867 0.019357 1.433376 -5.469933 0.575154 0.361694 8.046570 17.265402 8.859967 0.000000 0.000000 0.000000 -0.122538 -0.005878 0.087684 3.741838 -0.405729 1.482184 -9.442518 -22.191039 11.901213 0.000000 0.000000 0.000000 -3.736269 0.037213 -0.165113 3.868178 -0.490144 -20.660837 -0.339751 -3.223528 32.049884 2.330088 1.040079 -41.703380 0.000000 0.000000 0.000000 -13.964338 -3.876698 1.751839 -35.800629 11.225237 -9.090810 -88.562375 -20.513892 23.064938 0.000000 0.000000 0.000000 6.180124 10.721920 3.977345 36.493754 -7.627940 -7.362336 86.270609 26.959869 24.962626 0.000000 0.000000 0.000000 
-0.002041 0.941479 -0.007006 -1.176954 1.866698 0.785667 3.597726 0.029056 1.630551 -5.565460 0.579452 -0.105355 8.051604 17.269265 8.831743 0.000000 0.000000 0.000000 0.013961 0.015867 -0.155452 3.552852 -0.379755 1.779723 -9.457879 -22.225781 11.801449 0.000000 0.000000 0.000000 -3.795518 0.038273 -0.308337 3.990107 -0.544037 -20.337135 -0.228607 -3.205701 32.053900 2.496303 0.970010 -41.764515 0.000000 0.000000 0.000000 -13.730219 -3.936626 1.782238 -35.298617 11.521999 -9.029012 -89.304203 -20.575433 23.361095 0.000000 0.000000 0.000000 6.256889 11.056834 4.112315 35.537828 -7.655195 -7.156336 86.526405 26.304801 24.274410 0.000000 0.000000 0.000000 
-0.002065 0.941214 -0.008715 -1.266587 1.835218 0.739614 3.614689 0.034521 1.726205 -5.439007 0.563340 -0.377014 8.078821 17.305830 8.754595 0.000000 0.000000 0.000000 0.184724 0.043923 -0.460154 3.423087 -0.359720 2.207905 -9.487179 -22.283837 11.710605 0.000000 0.000000 0.000000 -3.812298 0.038151 -0.344390 3.936966 -0.535906 -20.240399 -0.008136 -3.132668 32.389557 2.299037 1.061481 -41.888953 0.000000 0.000000 0.000000 -13.568033 -4.029523 1.823953 -35.222750 11.968964 -9.137588 -89.719589 -20.805013 23.732673 0.000000 0.000000 0.000000 6.606763 11.161211 4.182304 34.994485 -7.999911 -7.147145 87.007083 26.062564 24.201067 0.000000 0.000000 0.000000 
-0.002286 0.940795 -0.010309 -1.310995 1.751876 0.680286 3.703277 0.027136 1.625631 -5.510997 0.573603 -0.250179 8.148428 17.406377 8.621220 0.000000 0.000000 0.000000 0.214080 0.040109 -0.428720 3.468368 -0.365925 2.072926 -9.447156 -22.225810 11.563924 0.000000 0.000000 0.000000 -3.784513 0.036685 -0.252135 3.864293 -0.517667 -20.229103 0.127469 -3.186740 32.484206 2.222532 1.075966 -41.902830 0.000000 0.000000 0.000000 -13.403479 -4.066616 1.858432 -34.950572 12.364425 -9.160301 -90.188958 -21.320743 24.460417 0.000000 0.000000 0.000000 6.900212 11.305349 4.243857 34.778695 -8.189236 -7.145590 87.203506 25.809770 23.935621 0.000000 0.000000 0.000000 
-0.002627 0.940562 -0.011694 -1.414981 1.565934 0.521377 3.846929 0.029485 1.696919 -5.564363 0.582744 -0.191888 8.250677 17.563391 8.561949 0.000000 0.000000 0.000000 0.332985 0.025501 -0.310109 3.465490 -0.364586 1.985445 -9.350217 -22.066436 11.449130 0.000000 0.000000 0.000000 -3.911751 0.034998 -0.093744 4.047646 -0.577789 -20.164556 0.335441 -3.191002 32.571813 2.143621 1.103842 -42.090383 0.000000 0.000000 0.000000 -13.210279 -3.794067 1.746585 -35.171036 12.526311 -9.270127 -90.385173 -21.931975 25.299417 0.000000 0.000000 0.000000 7.045631 11.144345 4.172566 34.695269 -8.494300 -7.206472 87.270394 25.828272 23.911478 0.000000 0.000000 0.000000 
-0.002920 0.940368 -0.012783 -1.615803 1.552720 0.482862 4.041595 0.029730 1.816034 -5.494533 0.571979 -0.456851 8.268260 17.584811 8.477729 0.000000 0.000000 0.000000 0.555837 -0.000058 -0.109374 3.490011 -0.370971 1.558526 -9.309218 -21.993140 11.485790 0.000000 0.000000 0.000000 -3.899789 0.033941 -0.002661 4.217936 -0.632164 -20.068119 0.503430 -3.275295 32.624211 1.982308 1.180048 -42.361274 0.000000 0.000000 0.000000 -13.084413 -3.581515 1.654698 -35.413958 12.413289 -9.313164 -91.083667 -22.387969 26.190585 0.000000 0.000000 0.000000 7.091851 10.865069 4.052639 35.247420 -8.996607 -7.460830 86.970545 26.168439 24.155992 0.000000 0.000000 0.000000 
-0.003070 0.940147 -0.013583 -1.793615 1.301541 0.379713 4.127648 0.038166 1.963490 -5.336159 0.558429 -0.558189 8.410693 17.808727 8.426806 0.000000 0.000000 0.000000 0.586927 -0.013262 0.006630 3.754615 -0.402307 1.423717 -9.158790 -21.740864 11.398401 0.000000 0.000000 0.000000 -3.909974 0.032787 0.105078 4.432840 -0.701543 -20.031272 0.688877 -3.273409 32.740676 1.632512 1.326941 -42.727735 0.000000 0.000000 0.000000 -12.866434 -3.415220 1.600561 -35.965109 12.413425 -9.479556 -91.406549 -22.960946 27.140752 0.000000 0.000000 0.000000 6.990317 10.667590 3.953390 35.435512 -9.406697 -7.618162 87.108654 26.700148 24.711643 0.000000 0.000000 0.000000 
-0.003103 0.939903 -0.014191 -1.826302 1.126963 0.323420 4.058653 0.050270 2.101363 -5.185041 0.543742 -0.721774 8.505183 17.957326 8.400031 0.000000 0.000000 0.000000 0.610387 -0.046185 0.308273 3.749409 -0.403170 0.906564 -9.040764 -21.543541 11.324901 0.000000 0.000000 0.000000 -3.933435 0.030538 0.434107 4.451820 -0.694433 -20.285074 0.850727 -3.208265 32.902390 1.387317 1.425508 -42.836834 0.000000 0.000000 0.000000 -12.959252 -3.199478 1.511107 -36.357281 12.092325 -9.525711 -91.580440 -23.257136 27.661933 0.000000 0.000000 0.000000 6.994798 10.225461 3.771726 35.712794 -9.965136 -7.841265 87.211716 27.261505 25.343069 0.000000 0.000000 0.000000 
-0.003066 0.939608 -0.014772 -1.772119 0.758741 0.369979 3.818097 0.068269 2.212979 -4.947921 0.521880 -0.992887 8.693030 18.258556 8.459777 0.000000 0.000000 0.000000 0.454237 -0.041271 0.295244 3.860061 -0.413146 0.739149 -8.863062 -21.246366 11.111995 0.000000 0.000000 0.000000 -4.016726 0.033074 0.403604 4.633574 -0.749091 -20.330379 0.785739 -3.115282 33.011815 1.086633 1.535773 -42.998379 0.000000 0.000000 0.000000 -13.055011 -2.998005 1.445058 -36.557483 11.878922 -9.537715 -91.110821 -23.335617 27.638079 0.000000 0.000000 0.000000 7.114199 10.055040 3.689282 35.557647 -10.350811 -7.902534 87.670507 28.017360 26.220329 0.000000 0.000000 0.000000 
-0.003046 0.939050 -0.015436 -1.725304 0.481142 0.425545 3.603532 0.076265 2.182099 -4.725189 0.502655 -1.057055 8.865273 18.531190 8.381083 0.000000 0.000000 0.000000 0.423835 -0.025912 0.153962 3.782769 -0.401357 0.784853 -8.763878 -21.089362 10.821838 0.000000 0.000000 0.000000 -4.050854 0.034885 0.414375 4.607165 -0.751771 -20.246546 0.815354 -3.163681 32.968340 0.852310 1.622408 -43.333069 0.000000 0.000000 0.000000 -12.994400 -2.891871 1.434332 -36.786789 11.618305 -9.538535 -90.369858 -23.421136 27.549128 0.000000 0.000000 0.000000 7.027009 9.704632 3.517597 35.409359 -10.624717 -7.927710 88.062276 28.596902 26.861146 0.000000 0.000000 0.000000 
-0.003015 0.938917 -0.016202 -1.692553 0.041182 0.267003 3.272804 0.112216 2.496819 -4.292032 0.463967 -1.299563 9.081340 18.883484 8.502006 0.000000 0.000000 0.000000 0.500239 -0.050135 0.364306 3.507398 -0.367766 0.589597 -8.555671 -20.732892 10.642480 0.000000 0.000000 0.000000 -4.118011 0.034007 0.563425 4.816183 -0.813129 -20.351443 0.807221 -3.058302 33.100375 0.701953 1.685456 -43.770504 0.000000 0.000000 0.000000 -12.985073 -2.688778 1.374433 -36.749597 11.249544 -9.453772 -90.007752 -23.125765 27.182639 0.000000 0.000000 0.000000 6.741969 9.404091 3.370494 35.150604 -10.564703 -7.858927 88.294688 28.888953 27.148809 0.000000 0.000000 0.000000 
